#!OML:ASF X:\für Bonn\!DataBase\2005_08_12_Daniel\c3d\Daniel.ASF
:FULLY-SPECIFIED
:DEGREES
484
root 2.20052 18.6998 -1.00031 -106.545 -86.5744 101.625
lowerback 8.39895 -2.34773 -4.31349
upperback -0.181978 -3.69761 -2.12104
thorax -4.77093 -1.76582 0.666903
lowerneck 10.2061 4.32468 -3.50897
upperneck 0.349852 5.21495 -0.697025
head -1.69542 2.58076 0.138945
rclavicle -2.44754e-015 2.5842e-014
rhumerus -33.2534 -45.1126 -14.5052
rradius 22.1101
rwrist -46.9902
rhand -20.3269 11.7309
rfingers 7.12502
rthumb 6.02424 -18.1634
lclavicle -2.44754e-015 2.5842e-014
lhumerus -39.2435 43.2898 5.57276
lradius 35.6606
lwrist 61.3196
lhand -21.5942 -0.0476779
lfingers 7.12502
lthumb 4.80059 29.8779
rfemur -7.6761 -3.78031 11.2004
rtibia 37.4445
rfoot 9.80776 -0.393433
rtoes -5.50131
lfemur -9.73256 -11.8562 -19.088
ltibia 41.1593
lfoot 6.5082 1.29591
ltoes -2.93336
485
root 2.18832 18.8105 -1.01727 -104.261 -86.5044 99.3586
lowerback 7.94836 -2.36737 -4.32988
upperback -0.349359 -3.70715 -2.18122
thorax -4.69508 -1.77075 0.596992
lowerneck 10.8991 4.24679 -3.37928
upperneck 0.677298 5.07575 -0.876637
head -1.69952 2.50447 0.0570062
rclavicle -4.46893e-014 -1.63003e-014
rhumerus -30.2036 -46.0374 -13.6967
rradius 22.3185
rwrist -46.4408
rhand -20.3807 11.2147
rfingers 7.12502
rthumb 5.97226 -18.6811
lclavicle -4.46893e-014 -1.63003e-014
lhumerus -34.0773 43.2874 4.96096
lradius 34.1395
lwrist 61.3107
lhand -21.3716 0.195153
lfingers 7.12502
lthumb 5.01551 30.1158
rfemur -7.38398 -3.48811 10.5243
rtibia 37.2339
rfoot 8.126 -2.65364
rtoes -5.77354
lfemur -9.42381 -12.3877 -18.6308
ltibia 40.4873
lfoot 7.07334 2.35463
ltoes -2.79319
486
root 2.17616 18.9115 -1.03394 -102.018 -86.4524 97.0965
lowerback 7.56765 -2.39761 -4.32723
upperback -0.507767 -3.73262 -2.23144
thorax -4.64882 -1.78346 0.531705
lowerneck 11.5064 4.21074 -3.3006
upperneck 1.03103 4.99458 -0.941904
head -1.6853 2.45377 0.0191207
rclavicle 1.08586e-014 1.43125e-014
rhumerus -26.9108 -46.7772 -13.2587
rradius 22.6294
rwrist -45.9962
rhand -20.4868 10.9003
rfingers 7.12502
rthumb 5.86986 -18.9984
lclavicle 1.08586e-014 1.43125e-014
lhumerus -28.695 43.0232 4.52229
lradius 32.671
lwrist 61.565
lhand -21.3846 0.509138
lfingers 7.12502
lthumb 5.00303 30.4301
rfemur -7.07786 -3.0823 9.88609
rtibia 37.0218
rfoot 6.27032 -4.83558
rtoes -5.98779
lfemur -9.06277 -12.8933 -18.1741
ltibia 39.8501
lfoot 7.19103 3.69188
ltoes -2.48364
487
root 2.16281 19.0046 -1.05051 -99.4938 -86.3986 94.5317
lowerback 7.21098 -2.41741 -4.3254
upperback -0.673192 -3.74625 -2.27892
thorax -4.62347 -1.78989 0.469667
lowerneck 12.108 4.16479 -3.17946
upperneck 1.39108 4.90665 -0.995563
head -1.66682 2.3991 -0.0214694
rclavicle -2.69105e-014 -2.54444e-014
rhumerus -23.3705 -46.8108 -13.1493
rradius 22.9626
rwrist -45.991
rhand -20.7216 10.8062
rfingers 7.12502
rthumb 5.64312 -19.0987
lclavicle -2.69105e-014 -2.54444e-014
lhumerus -23.1679 42.2779 4.31413
lradius 31.4128
lwrist 62.2885
lhand -21.7727 0.980453
lfingers 7.12502
lthumb 4.62827 30.9099
rfemur -6.77221 -2.62947 9.26122
rtibia 36.7875
rfoot 4.38165 -6.6704
rtoes -6.12067
lfemur -8.65965 -13.4167 -17.7241
ltibia 39.2274
lfoot 6.99966 5.10927
ltoes -1.23785
488
root 2.14876 19.0845 -1.06655 -97.1651 -86.3379 92.1475
lowerback 6.83498 -2.44189 -4.30491
upperback -0.821438 -3.76402 -2.34359
thorax -4.57124 -1.80024 0.378472
lowerneck 12.7866 4.14601 -3.11368
upperneck 1.68535 4.84552 -0.960239
head -1.68793 2.35613 -0.0284434
rclavicle 4.89507e-015 -1.86858e-014
rhumerus -19.6049 -45.9624 -13.3455
rradius 23.2792
rwrist -46.6224
rhand -21.0931 10.9666
rfingers 7.12502
rthumb 5.28447 -18.9475
lclavicle 4.89507e-015 -1.86858e-014
lhumerus -17.7313 41.0013 4.11495
lradius 30.4529
lwrist 63.5743
lhand -22.608 1.64393
lfingers 7.12502
lthumb 3.82169 31.5894
rfemur -6.43502 -2.15133 8.62373
rtibia 36.5142
rfoot 2.60247 -8.06669
rtoes -5.69984
lfemur -8.23287 -13.857 -17.2752
ltibia 38.6294
lfoot 6.62313 6.42153
ltoes 0.38851
489
root 2.13599 19.1481 -1.08217 -94.7193 -86.2809 89.5868
lowerback 6.55824 -2.46401 -4.2878
upperback -0.966381 -3.78421 -2.38992
thorax -4.56997 -1.81035 0.313095
lowerneck 13.4209 4.13996 -3.11851
upperneck 1.99484 4.79402 -0.865678
head -1.69944 2.31529 -0.00392011
rclavicle 3.00165e-014 7.95139e-015
rhumerus -15.8248 -44.5302 -13.5048
rradius 23.5967
rwrist -47.5053
rhand -21.5174 11.3132
rfingers 7.12502
rthumb 4.87474 -18.6107
lclavicle 3.00165e-014 7.95139e-015
lhumerus -12.8572 37.6895 3.6228
lradius 30.0628
lwrist 66.8097
lhand -24.0765 2.21321
lfingers 7.12502
lthumb 2.40351 32.1794
rfemur -6.00976 -1.61033 7.99478
rtibia 36.1749
rfoot 0.993082 -9.24542
rtoes -5.18612
lfemur -7.77188 -14.1985 -16.8045
ltibia 38.0798
lfoot 6.1764 7.70184
ltoes 1.74981
490
root 2.12391 19.1922 -1.09796 -92.2522 -86.2193 86.9939
lowerback 6.36845 -2.48234 -4.26308
upperback -1.1103 -3.80585 -2.45446
thorax -4.6185 -1.82091 0.229057
lowerneck 13.8116 4.13578 -3.08489
upperneck 2.42855 4.76454 -0.719166
head -1.62648 2.28223 0.0360932
rclavicle 6.85807e-015 -1.63003e-014
rhumerus -12.1866 -42.6237 -13.5307
rradius 23.9526
rwrist -48.6502
rhand -22.0004 11.7656
rfingers 7.12502
rthumb 4.40841 -18.1685
lclavicle 6.85807e-015 -1.63003e-014
lhumerus -8.89483 31.293 2.16366
lradius 30.425
lwrist 73.2176
lhand -26.4221 2.40937
lfingers 7.12502
lthumb 0.138048 32.3891
rfemur -5.52789 -1.08658 7.35581
rtibia 35.7352
rfoot -0.361236 -10.3739
rtoes -4.79183
lfemur -7.34943 -14.4422 -16.3116
ltibia 37.5974
lfoot 5.7925 8.86054
ltoes 2.85894
